PathFileType	4	(X/Y/Z)	C:\My Captures\DataSMARTClinic\0004~001 ID\0004~aa~STRATO_01\W2_STRATO_ID_01.trc
DataRate	CameraRate	NumFrames	NumMarkers	Units	OrigDataRate	OrigDataStartFrame	OrigNumFrames
250.00	250.00	16	18	mm	250.00	361	1811
Frame#	Time	r.should			l.should			c7			r.asis			l.asis			sacrum			r.bar1			l.bar1			r.knee1			l.knee1			r.bar2			r.mall			l.bar2			l.mall			r.met			r.heel			l.heel			l.met			
		X1	Y1	Z1	X2	Y2	Z2	X3	Y3	Z3	X4	Y4	Z4	X5	Y5	Z5	X6	Y6	Z6	X7	Y7	Z7	X8	Y8	Z8	X9	Y9	Z9	X10	Y10	Z10	X11	Y11	Z11	X12	Y12	Z12	X13	Y13	Z13	X14	Y14	Z14	X15	Y15	Z15	X16	Y16	Z16	X17	Y17	Z17	X18	Y18	Z18	

1234	4.936000	670.019865	1265.356064	373.695046	604.681194	1262.820125	85.346483	555.983007	1318.838239	233.521596	696.485758	828.896642	382.849276	725.519836	852.540195	118.577570	505.580127	874.568224	230.820596	612.959146	747.956574	429.103434	679.955542	756.789923	53.711858	505.513191	423.051238	368.078887	778.834760	429.244071	105.275489	456.109911	376.825392	366.161078	284.000188	138.834625	312.841266	786.586642	361.343801	106.047928	823.618054	74.191242	152.607426	363.635898	40.079478	288.457602	222.258180	145.006359	265.732318	758.535743	42.468116	190.274656	950.502813	46.260104	191.871822	
1235	4.940000	675.117254	1266.108036	373.282552	609.627366	1263.324499	85.077308	560.777605	1319.364309	233.238399	701.563716	829.267681	382.306069	730.332255	853.829682	118.114576	510.418892	875.056148	231.034949	618.157327	748.077214	428.786278	684.614062	757.292986	53.261086	513.081253	422.591388	368.236572	783.010125	429.412007	105.247542	463.180870	376.946539	366.466939	287.767500	141.608521	313.226730	790.548086	361.528873	106.188640	824.214220	74.017406	152.876660	364.600718	40.035021	288.573921	226.851180	149.141863	265.709758	759.416699	42.645901	190.793306	950.857699	45.831461	192.617148	
1236	4.944000	680.171907	1266.882420	372.884750	614.540160	1263.887525	84.789045	565.521717	1319.910526	232.951075	706.596375	829.729199	381.700695	735.118806	855.117321	117.628872	515.272558	875.541627	231.216609	623.242974	748.250782	428.458899	689.193904	757.705152	52.851021	520.704508	422.253937	368.624926	786.857367	429.595202	105.217040	470.423400	377.080441	366.801620	291.811883	144.441158	313.610137	794.292033	361.580104	106.334254	824.797630	73.862709	153.168201	365.601480	39.979219	288.695008	231.842607	153.322458	265.610874	760.507047	42.823534	191.572011	951.227725	45.464616	193.291217	
1237	4.948000	685.201049	1267.661572	372.510552	619.450092	1264.498949	84.495440	570.255756	1320.495963	232.651800	711.568892	830.263853	381.082118	739.901423	856.367886	117.168196	520.132422	876.042247	231.359214	628.262997	748.456597	428.102255	693.751395	758.056819	52.473780	528.365850	422.075868	369.318962	790.439069	429.747641	105.184719	477.855921	377.237111	367.167801	296.027422	147.098988	313.895077	797.876418	361.565650	106.461860	825.373292	73.763423	153.482229	366.660357	39.889745	288.795710	237.308264	157.332137	265.224487	760.297596	42.957291	191.237301	951.603174	45.068018	193.875089	
1238	4.952000	690.143168	1268.419743	372.130036	624.361873	1265.131593	84.194817	574.984014	1321.085811	232.368127	716.526806	830.840349	380.468965	744.710207	857.583106	116.688326	524.990141	876.577437	231.456339	633.206725	748.668373	427.692413	698.350489	758.376539	52.170698	536.394358	421.587646	369.792491	793.716192	429.872006	105.144605	485.512018	377.385408	367.560416	300.424337	149.471313	314.042985	801.230073	361.516058	106.547229	825.913846	73.703557	153.794870	368.203044	39.938260	289.232969	243.325591	161.096483	264.557123	761.805773	43.126263	192.427427	951.993048	44.658337	194.326639	
1239	4.956000	695.058763	1269.179106	371.739149	629.271507	1265.799522	83.904997	579.729676	1321.673274	232.042506	721.429706	831.486404	379.857838	749.431193	858.723402	116.234809	529.806077	877.157629	231.447577	638.115227	748.880267	427.277923	702.843904	758.689880	51.906589	544.646621	420.995653	370.254338	796.630919	429.914266	105.060779	493.349075	377.521455	367.977977	305.408597	152.185783	314.410150	804.341733	361.386299	106.569365	826.370001	73.654801	154.084295	370.344162	40.180914	290.064991	249.606416	165.162086	264.201045	761.546850	43.220572	192.205444	952.393174	44.286028	194.630980	
1240	4.960000	699.889064	1269.947767	371.384323	634.199023	1266.477346	83.615541	584.476531	1322.250843	231.695980	726.245463	832.158625	379.272878	754.072249	859.784663	115.789734	534.610510	877.774060	231.351689	642.997861	749.097705	426.842481	707.257390	759.010136	51.673807	553.063273	420.336157	370.743334	799.346924	429.806352	104.905687	501.377583	377.670556	368.405342	310.817689	154.910743	314.849287	807.240009	361.230284	106.515177	826.708972	73.600695	154.328763	371.876270	40.103503	290.212154	256.788492	169.300482	264.321625	760.164738	43.222286	191.041887	952.708423	43.980666	194.828302	
1241	4.964000	704.634607	1270.723820	371.014774	639.133811	1267.170191	83.345771	589.164138	1322.874904	231.357351	730.990350	832.867861	378.697217	758.688211	860.797226	115.355268	539.427757	878.431082	231.186435	647.875130	749.266386	426.385224	711.667359	759.322405	51.434152	561.607838	419.659227	371.267080	801.827431	429.527104	104.697376	509.654880	377.814144	368.842810	316.609144	157.598734	315.340638	809.881628	361.038506	106.371820	826.931417	73.537126	154.513210	373.313725	39.898697	290.180564	264.451027	173.374921	264.571488	759.849906	43.264799	190.812290	952.922642	43.742210	194.935232	
1242	4.968000	709.358156	1271.477222	370.661944	644.116163	1267.892480	83.064519	593.964100	1323.476553	230.975449	735.650897	833.598137	378.160506	763.256311	861.706555	114.993393	544.178247	879.143655	230.940923	652.712166	749.392569	425.907135	716.151714	759.693444	51.193941	570.210099	418.968827	371.874273	804.144084	429.098248	104.451247	518.067658	377.969176	369.325906	322.794557	160.174564	315.856040	812.246799	360.834718	106.168732	827.090204	73.463030	154.645354	374.775201	39.606050	290.161997	271.544755	177.197129	264.064789	759.795666	43.338280	190.797687	953.070462	43.538373	194.999620	
1243	4.972000	714.036584	1272.228003	370.354414	649.106860	1268.612027	82.785130	598.677158	1324.068308	230.565220	740.240455	834.343314	377.609700	767.801344	862.545073	114.691772	548.882782	879.867554	230.640635	657.491982	749.445438	425.425112	720.601976	760.071278	51.012225	578.753293	418.375790	372.445345	806.397796	428.602219	104.124956	526.403308	378.377259	369.604796	329.336941	162.627921	316.364437	814.481735	360.640883	105.909146	827.237248	73.384568	154.758558	376.117766	39.247222	290.241539	279.622018	181.170598	264.313787	760.519862	43.404587	191.398084	953.224897	43.359950	195.067659	
1244	4.976000	718.311310	1272.736311	370.046109	654.094338	1269.319534	82.469009	603.412926	1324.640989	230.156749	744.763792	835.129917	377.103150	772.327185	863.335252	114.396915	553.558648	880.591214	230.283752	662.316084	749.469757	424.907774	725.112796	760.456264	50.804682	587.306380	417.895406	372.915238	808.580637	428.115845	103.766210	534.697711	379.097879	369.615078	336.208284	164.957136	316.879839	816.613793	360.475063	105.625227	827.394783	73.306389	154.856905	377.253473	38.928360	290.393382	287.136227	185.064569	263.912857	762.150645	43.502092	192.788392	953.378677	43.196820	195.128411	
1245	4.980000	722.037554	1272.893906	369.756877	659.087718	1270.028591	82.166776	608.108103	1325.203657	229.735166	749.222994	835.871816	376.667202	776.844621	864.060521	114.170909	558.193803	881.293118	229.896754	667.081177	749.437571	424.412161	729.452908	760.909259	50.576739	596.081316	417.229950	373.629212	810.784936	427.665472	103.414252	543.994009	379.792035	370.844603	343.339890	167.186946	317.409426	818.646252	360.352129	105.362475	827.566504	73.213920	154.947907	378.695339	38.922440	290.608525	295.962721	189.371854	264.820307	762.609959	43.537598	193.157658	953.527153	43.048982	195.182234	
1246	4.984000	726.290882	1273.471951	369.492650	664.119303	1270.721674	81.864581	612.799823	1325.772762	229.321390	753.660917	836.646914	376.247227	781.328857	864.746511	114.017114	562.751234	881.954908	229.469478	671.822608	749.377489	423.925549	733.847737	761.412382	50.304256	604.917288	416.482091	374.450445	813.028753	427.313477	103.054442	554.127812	380.829781	373.143882	350.547701	169.482291	317.899495	820.604801	360.257864	105.077513	827.744007	73.122501	155.027300	380.817890	39.499760	290.908396	304.186255	193.605199	265.184700	762.757421	43.554161	193.265378	953.662395	42.917639	195.210412	
1247	4.988000	730.636477	1274.146795	369.241774	669.197440	1271.382093	81.568658	617.488980	1326.328754	228.854105	758.017123	837.439775	375.882864	785.727978	865.383446	113.897361	567.233622	882.595062	229.014203	676.527500	749.305189	423.378974	738.304019	761.939764	50.046176	613.919735	415.633082	375.311494	815.231025	427.074581	102.703281	562.980652	380.963892	373.836279	357.680500	171.967134	318.324625	822.461605	360.146105	104.775466	827.898741	73.018394	155.085996	383.658618	40.861148	291.220605	312.217653	197.761536	265.481770	762.824476	43.582372	193.337709	953.793347	42.794645	195.215419	
1248	4.992000	735.015690	1274.843335	369.017899	674.274325	1272.008181	81.269041	622.204661	1326.825857	228.394568	762.245238	838.176906	375.582159	790.144026	865.956485	113.830328	571.687102	883.160472	228.548005	681.192398	749.221623	422.836304	742.749810	762.477994	49.821649	622.896194	414.751738	376.209795	817.468405	426.911056	102.401219	571.042955	380.690873	373.708963	364.739776	174.703225	318.674803	824.177802	360.032022	104.483381	828.039765	72.916575	155.129477	387.116998	42.968325	291.465759	320.051610	201.871097	265.896142	762.888670	43.583453	193.343461	953.902245	42.686947	195.199966	
1249	4.996000	739.689291	1275.788188	368.828982	679.356694	1272.616982	80.985337	626.887143	1327.333689	227.914438	766.441941	838.902473	375.365317	794.555187	866.454184	113.840207	576.093018	883.664668	228.051424	685.888946	749.113083	422.282130	747.262776	763.051450	49.611136	631.822944	413.858891	377.065480	819.709301	426.837951	102.118783	580.855191	380.531967	374.821216	371.783555	177.670360	318.939179	825.828075	359.906077	104.183085	828.155458	72.812125	155.158505	391.091168	45.528460	291.629165	327.714026	206.016123	266.388655	762.919664	43.634620	193.356574	953.522205	42.378008	194.753379	
